<mxfile host="app.diagrams.net" modified="2022-03-16T14:36:07.485Z" agent="5.0 (Windows NT 10.0; Win64; x64) AppleWebKit/537.36 (KHTML, like Gecko) Chrome/99.0.4844.51 Safari/537.36" etag="1-5Urp286jqC7rNYG76F" version="15.9.1" type="github">
  <diagram id="EeyirNso1dYLTO-C0qxC" name="Page-1">
    <mxGraphModel dx="1038" dy="547" grid="1" gridSize="10" guides="1" tooltips="1" connect="1" arrows="1" fold="1" page="1" pageScale="1" pageWidth="827" pageHeight="1169" math="0" shadow="0">
      <root>
        <mxCell id="0" />
        <mxCell id="1" parent="0" />
        <mxCell id="Y7aPhmPHgT-9Uyq_Rb3S-1" value="Keycloak L-Login LVB" style="rounded=0;whiteSpace=wrap;html=1;fillColor=#fff2cc;strokeColor=#d6b656;" vertex="1" parent="1">
          <mxGeometry x="340" y="50" width="140" height="60" as="geometry" />
        </mxCell>
        <mxCell id="Y7aPhmPHgT-9Uyq_Rb3S-2" value="LeipzigMOVE" style="rounded=0;whiteSpace=wrap;html=1;" vertex="1" parent="1">
          <mxGeometry x="160" y="140" width="180" height="40" as="geometry" />
        </mxCell>
        <mxCell id="Y7aPhmPHgT-9Uyq_Rb3S-3" value="ABO Online" style="rounded=0;whiteSpace=wrap;html=1;" vertex="1" parent="1">
          <mxGeometry x="480" y="140" width="180" height="40" as="geometry" />
        </mxCell>
        <mxCell id="Y7aPhmPHgT-9Uyq_Rb3S-4" value="&lt;font&gt;&lt;span style=&quot;font-size: 15px&quot;&gt;&lt;b&gt;Patris&lt;br&gt;&lt;/b&gt;&lt;/span&gt;&lt;/font&gt;Vertriebshintergrundsystem der LVB - SSOT" style="whiteSpace=wrap;html=1;aspect=fixed;" vertex="1" parent="1">
          <mxGeometry x="339" y="240" width="150" height="150" as="geometry" />
        </mxCell>
      </root>
    </mxGraphModel>
  </diagram>
</mxfile>
